<svg width="20" height="20" viewBox="0 0 20 20" fill="none" xmlns="http://www.w3.org/2000/svg">
<path d="M19.1716 7.41256C19.1139 7.24274 19.0078 7.09353 18.8663 6.98335C18.7248 6.87316 18.5542 6.80681 18.3754 6.79251L13.1463 6.377L10.8835 1.36798C10.8114 1.20665 10.6942 1.06963 10.546 0.973442C10.3977 0.877257 10.2248 0.826025 10.0482 0.825928C9.87146 0.825831 9.69851 0.876874 9.55019 0.972896C9.40186 1.06892 9.28449 1.20582 9.21225 1.36707L6.94944 6.377L1.72029 6.79251C1.54459 6.80642 1.37663 6.87066 1.23649 6.97754C1.09636 7.08442 0.989977 7.2294 0.930082 7.39516C0.870186 7.56091 0.859312 7.74041 0.89876 7.91218C0.938207 8.08395 1.02631 8.24072 1.15252 8.36373L5.01682 12.1308L3.65015 18.0488C3.60865 18.2279 3.62195 18.4154 3.68832 18.5869C3.75469 18.7584 3.87107 18.9059 4.02236 19.0105C4.17365 19.115 4.35286 19.1716 4.53673 19.173C4.7206 19.1744 4.90065 19.1205 5.05351 19.0183L10.0479 15.6888L15.0422 19.0183C15.1984 19.1221 15.3827 19.1755 15.5702 19.1713C15.7577 19.1672 15.9394 19.1058 16.091 18.9953C16.2425 18.8848 16.3566 18.7306 16.4178 18.5533C16.4791 18.3761 16.4846 18.1843 16.4336 18.0039L14.756 12.1336L18.9166 8.38941C19.189 8.14359 19.289 7.76019 19.1716 7.41256Z" fill="#F3CD03"/>
</svg>
